<svg width="144" height="144" viewBox="0 0 144 144" fill="none" xmlns="http://www.w3.org/2000/svg">
<g filter="url(#filter0_dd_413_2621)">
<circle cx="72" cy="66.76" r="45.76" fill="#B8CDEA"/>
<circle cx="72" cy="66.76" r="44.4889" stroke="white" stroke-width="2.54222"/>
</g>
<mask id="mask0_413_2621" style="mask-type:alpha" maskUnits="userSpaceOnUse" x="26" y="20" width="92" height="93">
<circle cx="72" cy="66.7444" r="44.4889" fill="#D0E0FF" fill-opacity="0.8" stroke="white" stroke-width="2.54222"/>
</mask>
<g mask="url(#mask0_413_2621)">
<path d="M71.9998 69.6094C76.7676 69.6094 81.3402 67.7261 84.7116 64.3739C88.0829 61.0217 89.9769 56.4751 89.9769 51.7344C89.9769 46.9936 88.0829 42.4471 84.7116 39.0948C81.3402 35.7426 76.7676 33.8594 71.9998 33.8594C67.232 33.8594 62.6594 35.7426 59.288 39.0948C55.9167 42.4471 54.0227 46.9936 54.0227 51.7344C54.0227 56.4751 55.9167 61.0217 59.288 64.3739C62.6594 67.7261 67.232 69.6094 71.9998 69.6094ZM65.5814 76.3125C51.7474 76.3125 40.5398 87.4564 40.5398 101.212C40.5398 103.502 42.4077 105.359 44.7111 105.359H99.2885C101.592 105.359 103.46 103.502 103.46 101.212C103.46 87.4564 92.2522 76.3125 78.4182 76.3125H65.5814Z" fill="white"/>
<rect x="51.9798" y="103.93" width="40.04" height="7.15" fill="white"/>
</g>
<defs>
<filter id="filter0_dd_413_2621" x="0.817768" y="0.662223" width="142.364" height="142.364" filterUnits="userSpaceOnUse" color-interpolation-filters="sRGB">
<feFlood flood-opacity="0" result="BackgroundImageFix"/>
<feColorMatrix in="SourceAlpha" type="matrix" values="0 0 0 0 0 0 0 0 0 0 0 0 0 0 0 0 0 0 127 0" result="hardAlpha"/>
<feOffset/>
<feGaussianBlur stdDeviation="2.54222"/>
<feColorMatrix type="matrix" values="0 0 0 0 0 0 0 0 0 0 0 0 0 0 0 0 0 0 0.2 0"/>
<feBlend mode="normal" in2="BackgroundImageFix" result="effect1_dropShadow_413_2621"/>
<feColorMatrix in="SourceAlpha" type="matrix" values="0 0 0 0 0 0 0 0 0 0 0 0 0 0 0 0 0 0 127 0" result="hardAlpha"/>
<feOffset dy="5.08444"/>
<feGaussianBlur stdDeviation="12.7111"/>
<feColorMatrix type="matrix" values="0 0 0 0 0 0 0 0 0 0 0 0 0 0 0 0 0 0 0.1 0"/>
<feBlend mode="normal" in2="effect1_dropShadow_413_2621" result="effect2_dropShadow_413_2621"/>
<feBlend mode="normal" in="SourceGraphic" in2="effect2_dropShadow_413_2621" result="shape"/>
</filter>
</defs>
</svg>
