<?xml version="1.0" encoding="UTF-8"?>
<svg version="1.1" xmlns="http://www.w3.org/2000/svg" width="512" height="512">
<path d="M0 0 C32.84164291 -0.29767308 65.68293546 -0.52668338 98.52562004 -0.66384928 C102.4045334 -0.68010812 106.28344411 -0.69693434 110.16235352 -0.71411133 C110.93456195 -0.71752136 111.70677038 -0.7209314 112.50237907 -0.72444477 C124.9997414 -0.78098508 137.49632493 -0.88346772 149.99322551 -1.00298635 C162.81999111 -1.12463497 175.64634938 -1.19678004 188.47366816 -1.22315043 C196.38689544 -1.2409735 204.29792154 -1.29721685 212.21047098 -1.40291407 C218.28211363 -1.47987957 224.35187059 -1.48789982 230.42405701 -1.47039986 C232.91181544 -1.4739748 235.39965759 -1.4998177 237.88691902 -1.54967117 C256.24187693 -1.89950615 256.24187693 -1.89950615 260.86493611 1.28437257 C264.23777426 4.70523778 266.07280351 8.61740202 268 13 C269.48296242 15.13257852 269.48296242 15.13257852 271.0390625 16.8671875 C272.36763979 18.41251154 273.69617302 19.95787371 275.02392578 21.50390625 C278.50916253 25.52598875 282.1479013 29.33182114 286 33 C291 38 291 38 292.59375 39.69921875 C298.2567575 45.61418209 304.57659337 50.57836413 311.07177734 55.52929688 C313.00845667 57.00645011 314.9358233 58.49521836 316.86328125 59.984375 C329.33617512 69.55204835 342.42285152 77.98365073 355.9375 86 C356.69393799 86.45705322 357.45037598 86.91410645 358.22973633 87.38500977 C366.40608749 92.14971031 374.40424055 94.53068279 383.875 94.4375 C384.58785156 94.45748047 385.30070312 94.47746094 386.03515625 94.49804688 C397.03927858 94.48830871 406.57691516 89.56624893 415.75 83.9375 C416.69955566 83.36459229 417.64911133 82.79168457 418.62744141 82.20141602 C426.97810515 77.11512824 435.08621278 71.74026808 443 66 C444.00087646 65.27514404 444.00087646 65.27514404 445.02197266 64.53564453 C454.35352938 57.73880314 463.30740806 50.59458032 472 43 C472.9178125 42.2059375 473.835625 41.411875 474.78125 40.59375 C479.25987295 36.65472018 483.39859113 32.63497907 487.23828125 28.0703125 C489.17618483 25.79295353 491.21090147 23.62456851 493.25 21.4375 C497.68871215 16.55644197 501.52057906 11.32330763 505.28222656 5.91381836 C508.68523516 1.10492161 508.68523516 1.10492161 512 0 C512.09351536 21.74900108 512.16401453 43.49796892 512.20724869 65.24713039 C512.22785823 75.34605576 512.25594811 85.44485608 512.30175781 95.54370117 C512.34167478 104.34769068 512.3674445 113.15158959 512.37635398 121.95566708 C512.38156049 126.6157303 512.39376416 131.27553441 512.42292023 135.93551445 C512.45016616 140.32596848 512.45842652 144.71605782 512.45243073 149.10658836 C512.45352687 150.71377294 512.46142605 152.32097031 512.4768219 153.92808151 C512.55334528 162.33161657 512.50692125 169.64393456 508 177 C507.62168156 177.65016303 507.24336311 178.30032606 506.85358047 178.970191 C502.67262904 185.86685816 495.6069431 189.87105628 488 192 C485.31044551 192.18341061 482.72730726 192.2724806 480.04039288 192.25726891 C478.85894474 192.26252802 478.85894474 192.26252802 477.65362898 192.26789337 C475.01028251 192.27720874 472.3671563 192.2722837 469.72380066 192.26742554 C467.81112737 192.27116172 465.8984556 192.27576312 463.98578626 192.28115618 C458.72637016 192.29340543 453.46701758 192.29312345 448.20759046 192.29076743 C442.53670415 192.29035975 436.86583834 192.3013937 431.19496155 192.31088257 C420.08345951 192.32750393 408.97197868 192.33299262 397.86046525 192.33410732 C388.82988445 192.33505723 379.79931066 192.33916463 370.76873207 192.34550858 C349.33890701 192.36025688 327.90908887 192.37255798 306.47925854 192.37151146 C305.79393444 192.3714803 305.10861034 192.37144914 304.40251884 192.37141704 C300.9290166 192.37125083 297.45551436 192.37105275 293.98201212 192.37084763 C293.29216293 192.37080774 292.60231374 192.37076785 291.89156002 192.37072675 C290.49651691 192.37064587 289.10147379 192.37056228 287.70643067 192.37047596 C266.00144457 192.36925043 244.29652095 192.38426407 222.59155273 192.41162109 C198.20571402 192.44234444 173.81992679 192.45952811 149.43406564 192.45769465 C136.52237727 192.45703023 123.61075938 192.46254525 110.69908714 192.48405075 C99.70657682 192.50224219 88.71416892 192.50662658 77.72165009 192.4930319 C72.11245864 192.48649211 66.50346379 192.48642171 60.89429092 192.5037384 C55.75901516 192.51942914 50.62409254 192.51664628 45.4888256 192.49917014 C43.63152042 192.49609145 41.77418914 192.49976524 39.91691472 192.51089029 C22.19936232 192.60998564 22.19936232 192.60998564 15 188 C14.35269037 187.6217336 13.70538074 187.2434672 13.03845567 186.85373819 C6.11672493 182.67798181 2.16114893 175.60655295 0 168 C-0.24609566 164.63799477 -0.24609566 164.63799477 -0.24050903 160.90054321 C-0.24221788 160.20937987 -0.24392673 159.51821652 -0.24568737 158.80610883 C-0.2489671 156.5029561 -0.23800386 154.2000983 -0.22705078 151.89697266 C-0.22648634 150.24093635 -0.22680387 148.58489954 -0.22793579 146.92886353 C-0.22850901 142.44171461 -0.21675959 137.95467288 -0.20278788 133.46754885 C-0.19027548 128.77503282 -0.18910961 124.08251427 -0.18673706 119.38998413 C-0.18052379 110.50783568 -0.16411503 101.62573654 -0.14403808 92.74360979 C-0.12167433 82.63000614 -0.11068445 72.51640013 -0.10064721 62.40277791 C-0.07974869 41.60182444 -0.04457566 20.80091533 0 0 Z M68 70.0625 C64.5728418 75.0961386 64.3423134 78.97892552 65 85 C67.34792658 89.8764629 70.28760854 92.40337614 75 95 C78.79488695 95.98337421 82.38906496 96.13682914 86.29980469 96.16113281 C87.55170593 96.17074036 88.80360718 96.1803479 90.09344482 96.19024658 C91.45291968 96.1950959 92.81239667 96.1993744 94.171875 96.203125 C95.20727291 96.20736607 95.20727291 96.20736607 96.26358795 96.21169281 C99.91791665 96.22664985 103.57220624 96.23590076 107.2265625 96.24023438 C110.97993028 96.24570783 114.73293326 96.26972166 118.48618698 96.29820633 C121.39118456 96.31693625 124.29609616 96.32204382 127.20114899 96.32357025 C128.58369181 96.326575 129.96623392 96.33452891 131.34871674 96.34775543 C143.76932847 96.76464037 143.76932847 96.76464037 154.61053467 91.5479126 C158.68998746 86.81976141 159.35593387 83.59923382 159.27734375 77.5390625 C158.86623556 73.77539598 157.5171364 71.78209813 155 69 C149.31874639 64.52752375 144.77394852 63.88282771 137.70019531 63.83886719 C135.82234344 63.82445587 135.82234344 63.82445587 133.90655518 63.80975342 C132.54708032 63.8049041 131.18760333 63.8006256 129.828125 63.796875 C128.79272709 63.79263393 128.79272709 63.79263393 127.73641205 63.78830719 C124.08208335 63.77335015 120.42779376 63.76409924 116.7734375 63.75976562 C113.02006972 63.75429217 109.26706674 63.73027834 105.51381302 63.70179367 C102.60881544 63.68306375 99.70390384 63.67795618 96.79885101 63.67642975 C95.41630819 63.673425 94.03376608 63.66547109 92.65128326 63.65224457 C79.05662217 63.25155373 79.05662217 63.25155373 68 70.0625 Z " fill="#000000" transform="translate(0,288)"/>
<path d="M0 0 C1.61258698 0.70184921 1.61258698 0.70184921 3.25775146 1.4178772 C6.78010437 2.95620591 10.28817359 4.52456492 13.796875 6.09375 C16.2571075 7.17890871 18.72020145 8.25748587 21.18359375 9.33544922 C25.02496232 11.01774607 28.86545438 12.70189013 32.70153809 14.39620972 C41.2525091 18.17054091 49.83462261 21.86335784 58.44741058 25.49434662 C60.39184911 26.31424021 62.33559381 27.13575632 64.27911377 27.95782471 C71.73851491 31.11283047 71.73851491 31.11283047 79.20471191 34.25170898 C82.63568131 35.69146876 86.06051801 37.14498569 89.484375 38.6015625 C90.49030701 39.01943024 91.49623901 39.43729797 92.53265381 39.86782837 C98.83410458 42.56697741 105.58773773 45.54157021 109.74430847 51.23348999 C110.97969355 54.86662181 110.83290173 58.50144511 110.8215332 62.29589844 C110.8291996 63.61420151 110.8291996 63.61420151 110.83702087 64.95913696 C110.85094723 67.87386863 110.84995454 70.78836391 110.84765625 73.703125 C110.8515481 75.74741706 110.85588377 77.79170831 110.86064148 79.83599854 C110.86811499 84.13678593 110.86780901 88.43749133 110.86254883 92.73828125 C110.85795235 97.1062255 110.8646944 101.47388916 110.88305664 105.84179688 C111.07851178 152.71440698 111.07851178 152.71440698 107.546875 171.59375 C107.33313232 172.83092773 107.11938965 174.06810547 106.89916992 175.34277344 C106.34443739 178.28913376 105.70598721 181.18432654 104.984375 184.09375 C104.73461914 185.11017578 104.48486328 186.12660156 104.22753906 187.17382812 C96.75126941 215.89332079 81.82641537 240.2365529 61.546875 261.59375 C61.07556152 262.09229492 60.60424805 262.59083984 60.11865234 263.10449219 C52.71106391 270.88825647 44.94584127 277.82618118 36.33837891 284.25537109 C34.54867044 285.59240868 32.77227769 286.94584983 30.99609375 288.30078125 C21.90002944 295.16986537 12.40140302 301.30921954 2.68554688 307.26171875 C0.79339016 308.4402127 -1.05994851 309.65773549 -2.90625 310.90625 C-3.89109375 311.545625 -4.8759375 312.185 -5.890625 312.84375 C-6.69371094 313.38515625 -7.49679687 313.9265625 -8.32421875 314.484375 C-14.21802078 316.57406261 -20.33674236 316.77621405 -26.22631836 314.54150391 C-28.98494042 313.07840949 -31.58685924 311.48554531 -34.203125 309.78125 C-35.15050537 309.19174561 -36.09788574 308.60224121 -37.07397461 307.99487305 C-39.88958432 306.22694312 -42.67507229 304.42001062 -45.453125 302.59375 C-46.22865723 302.0874707 -47.00418945 301.58119141 -47.80322266 301.05957031 C-93.28191281 271.14988482 -129.87904505 231.9450432 -141.30908203 177.28198242 C-146.14156669 153.61959254 -145.95305138 130.004683 -145.89916992 105.95166016 C-145.8875424 100.50462745 -145.90815747 95.0582299 -145.93708706 89.61128044 C-145.95541266 85.38534455 -145.95516645 81.1595632 -145.94944954 76.93359756 C-145.94929669 74.92338274 -145.95531118 72.91315721 -145.96774101 70.9029808 C-145.98262445 68.1092218 -145.97200312 65.31667041 -145.95483398 62.52294922 C-145.96450195 61.70325653 -145.97416992 60.88356384 -145.98413086 60.03903198 C-145.91636165 54.77073029 -144.96086361 51.75829409 -141.453125 47.59375 C-136.16544842 43.05949245 -129.18571693 40.56857906 -122.828125 37.91796875 C-121.79207123 37.47911346 -120.75601746 37.04025818 -119.68856812 36.58810425 C-116.27957479 35.14569599 -112.86661457 33.71298217 -109.453125 32.28125 C-105.21608744 30.49796408 -100.97997833 28.71248749 -96.74470139 26.92502403 C-95.48784065 26.3946953 -94.2308433 25.86469022 -92.97371292 25.33500099 C-83.87544069 21.50009883 -74.81799181 17.5806104 -65.78508759 13.59429741 C-61.97920042 11.9170323 -58.16833457 10.2510958 -54.35775375 8.58452702 C-51.30394958 7.24743332 -48.25558508 5.90014856 -45.21240234 4.53890991 C-41.80886679 3.01766209 -38.39438633 1.5239657 -34.9765625 0.03515625 C-33.98490082 -0.41683136 -32.99323914 -0.86881897 -31.9715271 -1.33450317 C-20.35951385 -6.32151391 -11.29219161 -5.14356915 0 0 Z M14.359375 102.46875 C13.88870605 103.03682373 13.41803711 103.60489746 12.93310547 104.19018555 C9.15026987 108.78255048 5.46968221 113.45623399 1.8137207 118.14990234 C-1.71673749 122.67989932 -5.32056311 127.1453329 -8.953125 131.59375 C-13.62209892 137.31327768 -18.22842359 143.07613805 -22.76367188 148.90234375 C-23.98705968 150.47118116 -25.21998658 152.03256514 -26.453125 153.59375 C-27.12214844 154.44984863 -27.12214844 154.44984863 -27.8046875 155.32324219 C-28.97469835 156.78490048 -30.20926088 158.19440287 -31.453125 159.59375 C-32.113125 159.59375 -32.773125 159.59375 -33.453125 159.59375 C-35.0086444 157.48398707 -36.43806547 155.376919 -37.84765625 153.171875 C-38.72978663 151.82289634 -39.61194913 150.47393869 -40.49414062 149.125 C-41.87876381 146.98915811 -43.26059422 144.8515449 -44.64086914 142.71289062 C-45.97374134 140.6529755 -47.31655384 138.5998014 -48.66015625 136.546875 C-49.26824883 135.59352264 -49.26824883 135.59352264 -49.8886261 134.62091064 C-52.75863018 130.24336773 -55.73715626 126.95173437 -60.453125 124.59375 C-65.3783365 124.05339406 -69.32254218 124.04939531 -73.828125 126.21875 C-78.00051485 129.99376939 -80.64200374 133.28919065 -81.328125 138.96875 C-81.01582694 144.05955487 -78.92854514 147.57469882 -76.19921875 151.7421875 C-75.75765945 152.4315741 -75.31610016 153.12096069 -74.86116028 153.83123779 C-73.40454477 156.09396784 -71.9312413 158.34501266 -70.453125 160.59375 C-69.94793335 161.36475037 -69.4427417 162.13575073 -68.92224121 162.93011475 C-65.74309307 167.77075548 -62.52918509 172.58700326 -59.29223633 177.38916016 C-57.61751271 179.878099 -55.95434034 182.37452719 -54.29101562 184.87109375 C-53.21423927 186.47182365 -52.13679065 188.07210158 -51.05859375 189.671875 C-50.56892624 190.41036682 -50.07925873 191.14885864 -49.57475281 191.909729 C-46.49147587 196.44914623 -43.47208256 200.08427122 -38.453125 202.59375 C-36.21794884 202.86843266 -36.21794884 202.86843266 -33.703125 202.90625 C-32.86265625 202.94363281 -32.0221875 202.98101562 -31.15625 203.01953125 C-24.93143655 202.03903318 -21.05798954 197.39449076 -17.265625 192.71875 C-16.79495605 192.15067627 -16.32428711 191.58260254 -15.83935547 190.99731445 C-12.05651987 186.40494952 -8.37593221 181.73126601 -4.7199707 177.03759766 C-1.18951158 172.50759948 2.41436601 168.04221092 6.046875 163.59375 C10.55268076 158.07291462 14.99356765 152.50837601 19.3762207 146.8894043 C22.93259574 142.34253206 26.57653389 137.87168009 30.234375 133.40625 C41.62775993 120.76718008 41.62775993 120.76718008 45.82421875 105.1328125 C45.27317217 100.08801985 42.54176256 97.49388636 38.921875 94.21875 C28.45309739 89.17822745 21.12486249 94.12734048 14.359375 102.46875 Z " fill="#000000" transform="translate(401.453125,36.40625)"/>
<path d="M0 0 C1.23275553 -0.00256327 1.23275553 -0.00256327 2.49041522 -0.00517833 C5.23577531 -0.00846452 7.98088934 0.00251609 10.72622681 0.01345825 C12.69753005 0.01402255 14.66883372 0.01370543 16.64013672 0.01257324 C21.98675521 0.01199947 27.33328394 0.0237578 32.67988157 0.03772116 C38.26926945 0.0502244 43.85865938 0.0513987 49.44805908 0.05377197 C60.03017014 0.05998793 70.61223986 0.07640034 81.19433272 0.09647095 C93.24260444 0.11882633 105.29087815 0.12982248 117.33916545 0.13986182 C142.12136637 0.16076644 166.9035306 0.1959447 191.68569946 0.24050903 C191.70409378 0.8843454 191.7224881 1.52818176 191.74143982 2.19152832 C191.93936101 9.04082841 192.15323225 15.88951209 192.37539673 22.73806763 C192.45578714 25.27635878 192.53243055 27.81477204 192.60488892 30.353302 C193.17901402 50.33285569 193.96912757 70.49585975 198.30271912 90.07629395 C198.68569946 92.24050903 198.68569946 92.24050903 198.68569946 96.24050903 C122.45569946 96.24050903 46.22569946 96.24050903 -32.31430054 96.24050903 C-32.31430054 17.74050903 -32.31430054 17.74050903 -23.31430054 8.24050903 C-15.99097979 2.35472902 -9.43239624 -0.0722351 0 0 Z " fill="#000000" transform="translate(32.314300537109375,127.75949096679688)"/>
</svg>
