<?xml version="1.0" encoding="UTF-8"?>
<svg version="1.1" xmlns="http://www.w3.org/2000/svg" width="512" height="512">
<path d="M0 0 C1.61911757 1.43022818 3.22928552 2.86949199 4.83349609 4.31640625 C5.58244141 4.991875 6.33138672 5.66734375 7.10302734 6.36328125 C21.74858033 20.32279 32.35659429 38.12659056 40.83349609 56.31640625 C41.52572266 57.78980469 41.52572266 57.78980469 42.23193359 59.29296875 C55.07053696 88.32293178 58.42444745 119.91870615 57.83349609 151.31640625 C58.41728027 151.29545898 59.00106445 151.27451172 59.60253906 151.25292969 C83.29523876 150.51384843 83.29523876 150.51384843 93.20849609 158.75390625 C100.66768347 165.85361472 104.89939071 173.13670617 105.35107422 183.6171875 C105.37719404 185.95428557 105.38070638 188.29171672 105.36474609 190.62890625 C105.368573 191.87841064 105.3723999 193.12791504 105.37634277 194.4152832 C105.37974093 197.71273378 105.3637928 201.00941408 105.34130859 204.3067627 C105.33350115 206.31510585 105.34128609 208.32274991 105.35498047 210.33105469 C105.37982042 214.22232921 105.37666418 218.11258745 105.36474609 222.00390625 C105.37284302 223.18960205 105.38093994 224.37529785 105.38928223 225.59692383 C105.2700236 236.26771338 102.63763939 244.44321674 95.25537109 252.26953125 C88.65809525 257.84529342 80.67395723 261.24664197 72.06787109 261.6328125 C71.17841797 261.67470703 70.28896484 261.71660156 69.37255859 261.75976562 C68.45216797 261.79908203 67.53177734 261.83839844 66.58349609 261.87890625 C65.64763672 261.92208984 64.71177734 261.96527344 63.74755859 262.00976562 C61.44300968 262.11558675 59.13835771 262.21767182 56.83349609 262.31640625 C56.55376953 262.94546875 56.27404297 263.57453125 55.98583984 264.22265625 C50.59349677 275.73556879 44.59883404 281.34537896 32.83349609 286.31640625 C23.71684807 289.35528892 12.9503719 287.96707828 4.45458984 283.86328125 C-5.57101831 277.94652889 -10.63974336 270.37219776 -13.54970169 259.26123238 C-14.4900747 254.77156786 -14.5855965 250.43633912 -14.5546875 245.86303711 C-14.56257294 244.39242577 -14.56257294 244.39242577 -14.57061768 242.8921051 C-14.58369794 239.68831913 -14.5751229 236.48504001 -14.56494141 233.28125 C-14.56696542 231.03406174 -14.56987957 228.78687413 -14.57363892 226.53968811 C-14.57804593 221.84532374 -14.57168295 217.15113138 -14.55761719 212.45678711 C-14.54051658 206.45946294 -14.55038264 200.46254136 -14.56833458 194.4652319 C-14.57920784 189.82993063 -14.57570998 185.19472384 -14.5679512 180.55941963 C-14.5659595 178.34877028 -14.56837199 176.13811217 -14.57538986 173.92747307 C-14.58306387 170.83154655 -14.57131737 167.73626008 -14.5546875 164.64038086 C-14.56076019 163.73983978 -14.56683289 162.83929871 -14.5730896 161.91146851 C-14.46374445 150.84580429 -11.02342694 141.76189263 -3.57275391 133.5625 C3.65434244 126.76152962 13.45484624 124.00377031 23.21630859 124.0859375 C28.76718931 124.5747464 34.8254664 125.8123914 39.83349609 128.31640625 C37.27767519 86.97435703 22.94905052 50.14209615 -6.16650391 20.31640625 C-6.86775391 19.55328125 -7.56900391 18.79015625 -8.29150391 18.00390625 C-19.31209005 6.31540579 -32.95436388 -2.39926215 -47.16650391 -9.68359375 C-48.24287109 -10.23660156 -49.31923828 -10.78960937 -50.42822266 -11.359375 C-87.52350365 -29.37176364 -131.12024468 -31.6882436 -170.16650391 -18.68359375 C-176.64378084 -16.33886634 -182.93147098 -13.60656833 -189.16650391 -10.68359375 C-189.83665527 -10.3705127 -190.50680664 -10.05743164 -191.19726562 -9.73486328 C-205.78442546 -2.77825007 -218.52629509 7.17364226 -230.16650391 18.31640625 C-230.97216797 19.05890625 -231.77783203 19.80140625 -232.60791016 20.56640625 C-261.70978 48.2564483 -276.49933957 88.82185801 -278.16650391 128.31640625 C-276.97025391 127.84203125 -275.77400391 127.36765625 -274.54150391 126.87890625 C-264.32634716 123.0862386 -254.31574209 123.42073907 -244.16650391 127.31640625 C-234.67859472 132.23164963 -228.63882028 139.23778538 -225.16650391 149.31640625 C-223.8495023 154.25561088 -224.01141172 159.19923131 -224.00537109 164.2722168 C-223.99792374 165.77077461 -223.99792374 165.77077461 -223.99032593 167.29960632 C-223.97573602 170.60078627 -223.96890703 173.90191813 -223.96337891 177.203125 C-223.95762419 179.50372824 -223.95186649 181.80433147 -223.94610596 184.10493469 C-223.93560453 188.92925235 -223.92975646 193.75355338 -223.92626953 198.57788086 C-223.92079125 204.74348578 -223.8967736 210.90886916 -223.86829758 217.07440472 C-223.84962294 221.82807546 -223.84446299 226.5816934 -223.84293365 231.33539772 C-223.83991675 233.60746278 -223.8319209 235.87952713 -223.81874847 238.15155602 C-223.80158969 241.33908032 -223.80359249 244.5260706 -223.81005859 247.71362305 C-223.80084381 248.64229187 -223.79162903 249.57096069 -223.78213501 250.527771 C-223.85096238 261.42309438 -226.91123427 269.80565355 -234.29150391 277.87890625 C-243.08226175 286.44182587 -253.14857825 287.76767693 -264.85791016 287.6171875 C-270.18761581 287.3897214 -274.46894124 285.74776317 -279.16650391 283.31640625 C-279.27601855 302.41594816 -279.27601855 302.41594816 -270.2906189 318.50115967 C-261.86784659 325.69917329 -250.99462932 324.92046435 -240.56494141 324.92578125 C-238.87527906 324.94078556 -237.18563126 324.95751738 -235.4960022 324.97589111 C-231.08037591 325.01932462 -226.66494739 325.03951003 -222.24914551 325.05462646 C-217.73059511 325.07428474 -213.21225561 325.11624455 -208.69384766 325.15625 C-199.85145531 325.2312917 -191.00914635 325.28174011 -182.16650391 325.31640625 C-181.88033203 324.37925781 -181.59416016 323.44210937 -181.29931641 322.4765625 C-179.01106327 316.09312531 -173.08580268 312.23121247 -167.16650391 309.31640625 C-162.55330788 308.08970066 -157.98356039 308.13781482 -153.24462891 308.11328125 C-151.95549591 308.10473114 -151.95549591 308.10473114 -150.64031982 308.0960083 C-148.82484152 308.08658419 -147.00934631 308.08003464 -145.19384766 308.07617188 C-142.4396317 308.06648757 -139.68616933 308.03544859 -136.93212891 308.00390625 C-135.16129997 307.99737301 -133.39046573 307.9921238 -131.61962891 307.98828125 C-130.80681458 307.97593445 -129.99400024 307.96358765 -129.15655518 307.9508667 C-120.5045523 307.98398548 -113.21595705 310.21720245 -106.89697266 316.24609375 C-101.71318979 322.44791072 -100.48459913 329.49884022 -100.77978516 337.41796875 C-101.72819827 344.52627713 -104.70170063 349.67132346 -110.16650391 354.31640625 C-111.09462891 355.15171875 -111.09462891 355.15171875 -112.04150391 356.00390625 C-117.90287622 359.62416562 -124.26056193 359.63537757 -130.93994141 359.65234375 C-131.86312164 359.65900055 -132.78630188 359.66565735 -133.73745728 359.67251587 C-135.68221049 359.68259912 -137.62699801 359.68733424 -139.57177734 359.68701172 C-142.52581516 359.69138303 -145.478355 359.72774349 -148.43212891 359.765625 C-150.33056135 359.77149469 -152.22900082 359.77546306 -154.12744141 359.77734375 C-154.99960297 359.79171478 -155.87176453 359.80608582 -156.77035522 359.82089233 C-164.90113629 359.76116253 -172.32651843 357.15639173 -178.16650391 351.31640625 C-182.16650391 345.46114309 -182.16650391 345.46114309 -182.16650391 342.31640625 C-183.1148259 342.3252887 -184.06314789 342.33417114 -185.04020691 342.34332275 C-194.02765325 342.42481579 -203.01502351 342.48456549 -212.00275707 342.52365494 C-216.62219467 342.54442765 -221.24133127 342.57255387 -225.8605957 342.61816406 C-230.32806114 342.66199356 -234.79523917 342.68562068 -239.26290321 342.69591522 C-240.95755849 342.70324065 -242.65220009 342.71754318 -244.34673119 342.73932648 C-259.67391385 342.92831555 -272.32288171 340.93078924 -284.16650391 330.31640625 C-294.09006232 320.2032257 -296.34370173 307.04676565 -296.26416016 293.4453125 C-296.26274521 292.52298325 -296.26133026 291.60065399 -296.25987244 290.65037537 C-296.25430897 287.72651827 -296.24176333 284.8027399 -296.22900391 281.87890625 C-296.22398418 279.8873709 -296.2194221 277.89583435 -296.21533203 275.90429688 C-296.20435152 271.04163669 -296.18711229 266.17903478 -296.16650391 261.31640625 C-297.46628174 261.33525879 -298.76605957 261.35411133 -300.10522461 261.37353516 C-301.83007431 261.38878374 -303.55492814 261.40357055 -305.27978516 261.41796875 C-306.56133484 261.43839233 -306.56133484 261.43839233 -307.86877441 261.45922852 C-318.20768616 261.52389335 -326.60822732 258.51002914 -334.16650391 251.31640625 C-342.29139716 242.415955 -343.62887925 233.92522498 -343.60009766 222.19921875 C-343.60533951 220.94688446 -343.61058136 219.69455017 -343.61598206 218.40426636 C-343.62238705 215.76316561 -343.62253813 213.1229348 -343.61254883 210.48193359 C-343.60335623 207.79151321 -343.61028344 205.1019601 -343.63305664 202.41162109 C-343.66387707 198.50722248 -343.66712782 194.60372013 -343.66259766 190.69921875 C-343.67383163 189.50724884 -343.68506561 188.31527893 -343.69664001 187.08718872 C-343.60957679 176.55688521 -341.18709075 168.67585192 -333.87744141 160.99609375 C-325.42567909 152.69870152 -317.63751641 150.97726578 -306.04150391 151.06640625 C-302.74837678 151.11827521 -299.45790851 151.19830451 -296.16650391 151.31640625 C-296.18221436 150.481698 -296.18221436 150.481698 -296.19824219 149.63012695 C-296.79089906 112.94166575 -291.32532723 76.7480647 -273.16650391 44.31640625 C-272.53433536 43.12343251 -271.90412941 41.92941672 -271.27587891 40.734375 C-251.08414801 3.05313307 -213.64487158 -23.9569124 -173.21557617 -36.22119141 C-113.01988889 -53.66491563 -47.525709 -41.34697823 0 0 Z M-274.54150391 147.62890625 C-279.3356986 153.37390491 -279.46117901 159.73848713 -279.44116211 166.86669922 C-279.44627304 167.81057495 -279.45138397 168.75445068 -279.45664978 169.72692871 C-279.47051462 172.83754879 -279.46959124 175.9479465 -279.46728516 179.05859375 C-279.47117395 181.22803835 -279.475509 183.39748219 -279.48027039 185.56692505 C-279.48772604 190.11121083 -279.48744615 194.65541891 -279.48217773 199.19970703 C-279.47638578 205.01239131 -279.49331087 210.82475666 -279.51652241 216.63738823 C-279.53128141 221.11733854 -279.53212845 225.59721245 -279.52901268 230.07718277 C-279.52952486 232.21971391 -279.5347431 234.36224944 -279.5448246 236.50475693 C-279.55721273 239.50582114 -279.55038272 242.50626926 -279.53881836 245.50732422 C-279.5464621 246.38550812 -279.55410583 247.26369202 -279.5619812 248.16848755 C-279.51156629 254.11187361 -278.93317543 260.17578939 -274.82079029 264.84400749 C-269.46066156 269.56662248 -264.70726493 270.78872207 -257.73291016 270.6328125 C-252.35971884 269.97036426 -248.52943112 267.71519997 -244.79150391 263.87890625 C-241.12782777 258.1015708 -240.86927925 253.37974328 -240.87597656 246.69604492 C-240.86925934 245.73280807 -240.86254211 244.76957123 -240.85562134 243.77714539 C-240.83664026 240.59616929 -240.83271698 237.41540419 -240.83056641 234.234375 C-240.82413826 232.01866062 -240.81740988 229.80294709 -240.81039429 227.5872345 C-240.79842102 222.94282056 -240.79471349 218.29848101 -240.79589844 213.65405273 C-240.79610156 207.7123509 -240.7688066 201.77112775 -240.73435402 195.8295393 C-240.71207964 191.25264815 -240.70806108 186.67587206 -240.70911789 182.09893227 C-240.70676248 179.9089423 -240.69794235 177.71894914 -240.68245316 175.52901268 C-240.66278413 172.46065462 -240.66863541 169.39332701 -240.68066406 166.32495117 C-240.66380554 164.97726654 -240.66380554 164.97726654 -240.64660645 163.60235596 C-240.71102428 157.1122789 -242.07229732 151.66241816 -246.57842445 146.78958416 C-250.63340725 143.20613381 -254.13651619 141.50791452 -259.47900391 141.00390625 C-265.69950973 141.53106776 -270.26257998 142.92313103 -274.54150391 147.62890625 Z M6.06005859 148.5234375 C2.37219427 153.9142965 2.53666981 159.78914919 2.54296875 166.05029297 C2.53625153 167.01367584 2.5295343 167.97705872 2.52261353 168.96963501 C2.50366074 172.14517414 2.49971079 175.32050163 2.49755859 178.49609375 C2.49112918 180.71037889 2.48440071 182.92466317 2.47738647 185.13894653 C2.46542079 189.77738413 2.46170497 194.41574728 2.46289062 199.05419922 C2.46309386 204.98802531 2.43578346 210.92137271 2.40134621 216.85508537 C2.37907377 221.42768533 2.37505319 226.00017011 2.37611008 230.57281876 C2.37375497 232.76001766 2.36493656 234.94721977 2.34944534 237.13436508 C2.3297774 240.197825 2.33562685 243.26025276 2.34765625 246.32373047 C2.33641724 247.22061584 2.32517822 248.11750122 2.31359863 249.04156494 C2.3782466 255.54369138 3.7316896 261.04815617 8.31621742 265.87869072 C13.58771131 270.46758687 18.09412831 270.67099754 24.82177734 270.58984375 C29.88148602 270.13046683 32.88821306 268.50548454 36.32958984 264.6328125 C39.64076919 260.27106067 40.95084061 256.67089447 40.97393799 251.16876221 C40.97964813 250.35023773 40.98535828 249.53171326 40.99124146 248.68838501 C40.99235931 247.7989621 40.99347717 246.90953918 40.99462891 245.99316406 C40.99959381 245.04958038 41.00455872 244.1059967 41.00967407 243.13381958 C41.02427784 240.01238271 41.03109509 236.89099667 41.03662109 233.76953125 C41.04237444 231.59722899 41.04813216 229.42492675 41.05389404 227.25262451 C41.06439925 222.69640873 41.07024492 218.14021056 41.07373047 213.58398438 C41.07921116 207.75556998 41.10323231 201.92738967 41.13170242 196.09904861 C41.15035885 191.61052783 41.15553603 187.12206306 41.15706635 182.63350677 C41.1600871 180.48538688 41.16809607 178.33726783 41.18125153 176.1891861 C41.19837301 173.17835369 41.19641665 170.16808837 41.18994141 167.15722656 C41.19915619 166.27590057 41.20837097 165.39457458 41.21786499 164.48654175 C41.1754015 158.15948151 40.31790464 152.3659883 36.18505859 147.29296875 C26.07468329 139.37851207 15.3740437 139.23546911 6.06005859 148.5234375 Z M-323.47900391 174.56640625 C-327.32147606 180.82821272 -327.46693265 187.64605905 -327.43212891 194.78515625 C-327.43404236 195.66490112 -327.43595581 196.544646 -327.43792725 197.4510498 C-327.43928036 199.299889 -327.43564542 201.14873798 -327.42724609 202.99755859 C-327.41653408 205.80848776 -327.42717124 208.61877793 -327.43994141 211.4296875 C-327.43861966 213.23567848 -327.43605694 215.04166906 -327.43212891 216.84765625 C-327.43617737 217.67809448 -327.44022583 218.50853271 -327.44439697 219.36413574 C-327.38829274 226.43398663 -326.64528635 233.55797168 -322.16650391 239.31640625 C-313.00321306 246.18887438 -309.82549177 244.31640625 -296.16650391 244.31640625 C-296.16650391 219.23640625 -296.16650391 194.15640625 -296.16650391 168.31640625 C-312.09486232 167.101593 -312.09486232 167.101593 -323.47900391 174.56640625 Z M57.83349609 168.31640625 C57.83349609 193.39640625 57.83349609 218.47640625 57.83349609 244.31640625 C72.74954875 245.37979504 72.74954875 245.37979504 83.58349609 238.87890625 C89.21489747 232.46536579 88.99518888 225.24414892 89.03662109 217.078125 C89.0451712 215.75782036 89.0451712 215.75782036 89.05389404 214.4108429 C89.06330782 212.55426217 89.06986356 210.69766501 89.07373047 208.84106445 C89.08342934 206.0232992 89.11448434 203.20626612 89.14599609 200.38867188 C89.15252812 198.57682721 89.1577778 196.76497737 89.16162109 194.953125 C89.1739679 194.12157394 89.1863147 193.29002289 89.19903564 192.43327332 C89.17290829 185.46152211 87.76353802 179.37785206 84.02099609 173.44140625 C76.03282284 165.68146652 69.65293829 168.31640625 57.83349609 168.31640625 Z M-166.16650391 329.31640625 C-167.40324642 332.94933739 -167.51108594 334.55832578 -165.91650391 338.06640625 C-164.19285622 340.52722476 -164.19285622 340.52722476 -161.16650391 342.31640625 C-158.32397007 342.54868779 -155.58183149 342.66842961 -152.73681641 342.6875 C-151.90946991 342.69652847 -151.08212341 342.70555695 -150.22970581 342.71485901 C-148.47967141 342.7293624 -146.72958278 342.73824847 -144.97949219 342.74194336 C-142.30782221 342.75383363 -139.63846718 342.80300905 -136.96728516 342.85351562 C-135.26547349 342.86298093 -133.56364767 342.87021545 -131.86181641 342.875 C-131.06583038 342.89453232 -130.26984436 342.91406464 -129.44973755 342.93418884 C-125.23215564 342.90004422 -123.61777128 342.66326174 -120.15820312 340.00415039 C-117.89557515 337.38417262 -117.89557515 337.38417262 -117.60400391 333.75390625 C-118.2452158 329.83538914 -119.0614961 328.69082399 -122.16650391 326.31640625 C-125.34565108 324.72683266 -128.78634773 325.11106903 -132.27978516 325.078125 C-133.08635056 325.07005325 -133.89291595 325.06198151 -134.72392273 325.05366516 C-136.43286998 325.03982482 -138.14184487 325.02910243 -139.85083008 325.02124023 C-142.4585442 325.00404119 -145.06498578 324.96015831 -147.67236328 324.91601562 C-149.33316125 324.90588728 -150.99397 324.89737162 -152.65478516 324.890625 C-153.43203445 324.87311691 -154.20928375 324.85560883 -155.01008606 324.83757019 C-160.02605332 324.85756454 -162.70545464 325.63979566 -166.16650391 329.31640625 Z " fill="#000000" transform="translate(375.16650390625,98.68359375)"/>
<path d="M0 0 C14.30182612 11.28364764 23.64669535 25.33048039 28.83203125 42.796875 C29.20134766 44.0034375 29.20134766 44.0034375 29.578125 45.234375 C34.6399594 65.34207578 29.32849519 86.3103648 19.51953125 103.984375 C8.7093272 121.78533199 -8.58322732 133.21932829 -28.60546875 138.2890625 C-33.2531335 139.21009362 -37.55664881 139.95999461 -42.28808594 139.42871094 C-48.72956421 138.77556355 -54.62999068 138.24421848 -60.06054688 142.25976562 C-63.83949586 145.55624133 -67.12804316 149.27294066 -70.41796875 153.046875 C-72.15144784 154.94088828 -73.89800919 156.82202466 -75.64764404 158.70111084 C-76.72218428 159.86489008 -77.78500399 161.03964936 -78.83331299 162.22711182 C-81.95650261 165.7277309 -85.03123087 168.46792971 -89.16796875 170.796875 C-93.23248488 170.86695286 -95.27009058 170.57558261 -98.3605957 167.89526367 C-101.01743288 163.34063439 -100.60168247 159.33428548 -100.4609375 154.16015625 C-100.45105771 152.03451132 -100.4426407 149.90885918 -100.43554688 147.78320312 C-100.40247211 144.44951189 -100.35564875 141.11746529 -100.28149414 137.78442383 C-99.34162797 123.22515184 -99.34162797 123.22515184 -105.44921875 110.734375 C-107.00719646 109.40417631 -108.57853085 108.08931853 -110.16796875 106.796875 C-121.96147856 90.84926956 -125.17040292 69.82668399 -122.89990234 50.51708984 C-119.66193792 30.09547264 -108.56591455 12.3486734 -92.16796875 -0.203125 C-63.91799798 -19.16214665 -28.07026656 -19.52112249 0 0 Z M-92.16796875 22.796875 C-103.16658738 37.17302218 -107.34576264 52.90562491 -106.16796875 70.796875 C-104.37963303 83.13488868 -98.40949156 96.9007722 -88.64404297 105.07202148 C-84.39852365 109.01103934 -83.70368278 112.29923607 -83.36328125 118.04296875 C-83.28963141 120.77437289 -83.28659178 123.50216283 -83.29296875 126.234375 C-83.27482061 127.64782349 -83.25401127 129.06124045 -83.23046875 130.47460938 C-83.17890051 133.91554033 -83.16351802 137.35550763 -83.16796875 140.796875 C-78.89056756 137.21428009 -74.81806529 133.54508717 -70.91796875 129.546875 C-64.4258307 122.89344159 -64.4258307 122.89344159 -60.83056641 122.61743164 C-59.9235498 122.64699951 -59.0165332 122.67656738 -58.08203125 122.70703125 C-56.57165283 122.74074829 -56.57165283 122.74074829 -55.03076172 122.77514648 C-53.96229004 122.80294189 -52.89381836 122.8307373 -51.79296875 122.859375 C-33.44093279 123.05599427 -17.83765181 119.02224861 -4.22998047 106.05444336 C7.37897356 94.44351703 13.67670767 80.08887006 14.20703125 63.734375 C13.92758263 47.31265912 8.46444121 31.83903046 -3.01171875 19.7890625 C-15.58452351 8.17288419 -31.96043503 1.93325612 -49.12109375 2.5234375 C-65.39948892 3.98431912 -81.21901705 10.30695973 -92.16796875 22.796875 Z " fill="#000000" transform="translate(302.16796875,176.203125)"/>
<path d="M0 0 C2.90398503 2.11912421 3.84245093 3.50634623 4.9375 6.9375 C5.0128328 10.62880732 4.24574926 12.1126081 2 15 C-1.7205836 17.48038907 -3.59796571 17.46337203 -8 17 C-10.36497439 15.13291495 -11.66030715 13.67938569 -13 11 C-13.42576871 7.16808162 -13.30321315 5.47050317 -11.1875 2.1875 C-7.53637316 -1.46362684 -4.79503135 -1.27215117 0 0 Z " fill="#000000" transform="translate(289,232)"/>
<path d="M0 0 C2.22309696 2.55244466 2.58725894 4.6029246 2.86328125 7.93359375 C2.58003664 11.16258229 0.97866235 12.77726121 -1.3125 14.9375 C-4.16574437 16.36412219 -6.14704549 16.24783868 -9.3125 15.9375 C-13.06035043 13.85536087 -14.10732295 12.6427961 -15.3125 8.5 C-15.3125 4.5190106 -14.8302436 2.97615607 -12.3125 -0.0625 C-8.2835469 -3.11894718 -4.3497314 -1.99852524 0 0 Z " fill="#000000" transform="translate(262.3125,233.0625)"/>
<path d="M0 0 C2.87833732 2.65110016 3.8974856 4.16279904 4.375 8.0625 C4.00950778 10.9255224 3.60997354 12.62740741 2 15 C-1.7373856 17.4915904 -3.57331583 17.45793285 -8 17 C-11.43250143 15.0598905 -12.70166193 13.85772196 -14 10.125 C-14 6.22139607 -13.19395541 4.21780127 -11 1 C-7.19017752 -1.36826803 -4.23440838 -1.35140693 0 0 Z " fill="#000000" transform="translate(232,232)"/>
</svg>
